<?xml version="1.0" encoding="UTF-8"?>
<svg width="22px" height="22px" viewBox="0 0 22 22" version="1.1" xmlns="http://www.w3.org/2000/svg" xmlns:xlink="http://www.w3.org/1999/xlink">
    <!-- Generator: Sketch 52.5 (67469) - http://www.bohemiancoding.com/sketch -->
    <title>首页-选中</title>
    <desc>Created with Sketch.</desc>
    <g id="页面-1" stroke="none" stroke-width="1" fill="none" fill-rule="evenodd">
        <g id="首页" transform="translate(-28.000000, -1281.000000)">
            <g id="首页-选中" transform="translate(28.000000, 1281.000000)">
                <path d="M9.53924991,0.442021621 L0.276358272,9.23750295 C-0.0711508507,9.55680628 -0.0940156234,10.097365 0.225286733,10.444874 C0.540331396,10.7877487 1.07189541,10.8152668 1.42066178,10.5067609 L1.56795345,10.3669136 L1.56795345,19.5468539 C1.56677841,20.4907111 2.33097514,21.2568145 3.27483296,21.2579891 C3.27554238,21.2579899 3.27625181,21.2579904 3.27696124,21.2579904 L18.0896521,21.2579901 C19.0335123,21.2582845 19.7988997,20.4933732 19.7991951,19.5495154 L19.7991938,10.4791236 C20.1788554,10.822627 20.7175069,10.7965718 21.0333598,10.4445606 C21.3496476,10.0943054 21.3221129,9.55396413 20.9718572,9.23767401 C20.9717976,9.23762012 20.9717379,9.23756624 20.9716782,9.23751237 L11.8299758,0.442550967 C11.1801631,-0.147428735 10.1890679,-0.147428735 9.53924991,0.442021621 Z" id="Combined-Shape" fill="#108EE9"></path>
                <path d="M12.7216255,13.3913043 L8.30904874,13.3913044 C7.94401454,13.3913044 7.65217391,13.6790323 7.65217391,14.0339529 C7.65217391,14.0653481 7.65460839,14.0963574 7.65931659,14.1267773 C7.65621608,14.1516621 7.65463137,14.1770004 7.65463137,14.202679 L7.65463137,17.5224706 C7.65463137,17.8742145 7.94594232,18.1618981 8.30528254,18.1618981 C8.65412581,18.1618981 8.95593371,17.8756222 8.95593371,17.5224706 L8.95593371,14.6766246 L12.090002,14.6766246 L12.090002,17.5344855 C12.090002,17.8862516 12.381313,18.173913 12.7406532,18.173913 C13.0894965,18.173913 13.3913043,17.887637 13.3913043,17.5344855 L13.3913043,14.2146718 C13.3913043,14.1685545 13.3862976,14.1235261 13.3767893,14.0801083 C13.3779147,14.0648644 13.3784888,14.0494616 13.3784888,14.0339456 C13.3785003,13.6894002 13.0844108,13.3913043 12.7216255,13.3913043 Z" id="路径" fill="#FFFFFF"></path>
            </g>
        </g>
    </g>
</svg>