<?xml version="1.0" encoding="UTF-8"?>
<svg width="23px" height="22px" viewBox="0 0 23 22" version="1.1" xmlns="http://www.w3.org/2000/svg" xmlns:xlink="http://www.w3.org/1999/xlink">
    <!-- Generator: Sketch 52.5 (67469) - http://www.bohemiancoding.com/sketch -->
    <title>首页-未选中</title>
    <desc>Created with Sketch.</desc>
    <g id="页面-1" stroke="none" stroke-width="1" fill="none" fill-rule="evenodd">
        <g id="首页" transform="translate(-27.000000, -1240.000000)">
            <g id="首页-未选中" transform="translate(27.000000, 1240.000000)">
                <path d="M11.8089704,0.216269214 C11.5562518,-0.0359716406 11.1524744,-0.0338238861 10.902089,0.21608852 C10.8921994,0.225959472 10.8826944,0.236101464 10.8735969,0.246514453 C10.8659251,0.253448963 10.8583664,0.260609352 10.8509661,0.267995619 L0.188742232,10.9100861 C-0.0639763508,11.162327 -0.0618245286,11.5653411 0.188561196,11.8152532 C0.431615378,12.0578479 0.844966495,12.065077 1.09544258,11.8150725 L11.3559192,1.57403595 L21.5645354,11.7633321 C21.817254,12.015573 22.2210314,12.0134252 22.4714168,11.7635128 C22.714471,11.5209181 22.7217138,11.1083484 22.4712358,10.8583458 L11.8089898,0.216255263 L11.8089704,0.216269214 Z M19.1448044,13.4795032 C19.1448044,13.129119 18.8577562,12.8395407 18.5036741,12.8395407 C18.1599355,12.8395407 17.8625439,13.1260684 17.8625439,13.4795032 L17.8625439,20.2660542 L4.74622541,20.2660542 L4.74622541,13.4663694 C4.74622541,13.1159852 4.45917719,12.826407 4.10509518,12.826407 C3.7613565,12.826407 3.46396494,13.1129347 3.46396494,13.4663694 L3.46396494,20.889477 C3.46396494,20.9418585 3.47036946,20.9928621 3.48247689,21.0417651 C3.54534527,21.3237986 3.79867313,21.5459069 4.101609,21.5459069 L18.5139083,21.5459069 C18.8487987,21.5459069 19.1480214,21.2594013 19.1480214,20.9059886 C19.1480214,20.8847559 19.1469351,20.8637039 19.1448078,20.8429005 L19.1448078,13.4794798 L19.1448044,13.4795032 Z" id="形状" fill="#333333" fill-rule="nonzero"></path>
                <path d="M14.2675335,14.0312226 C14.2675335,13.6881337 13.9777474,13.3913043 13.6202706,13.3913043 L9.27226282,13.3913044 C8.91257014,13.3913044 8.625,13.67781 8.625,14.0312226 C8.625,14.0624845 8.62739885,14.0933621 8.63203816,14.1236527 C8.62898302,14.1484318 8.6274215,14.1736625 8.6274215,14.199232 L8.6274215,17.5049198 C8.6274215,17.8551693 8.91446972,18.1416308 9.26855173,18.1416308 C9.61229041,18.1416308 9.90968197,17.856571 9.90968197,17.5049198 L9.90968197,14.6711641 L12.9978897,14.6711641 L12.9978897,17.5168836 C12.9978897,17.8671552 13.2849379,18.1535946 13.6390199,18.1535946 C13.9827586,18.1535946 14.2801501,17.8685348 14.2801501,17.5168836 L14.2801501,14.2111738 C14.2801501,14.1652525 14.2752166,14.1204154 14.2658475,14.0771819 C14.2669564,14.0620028 14.2675221,14.0466655 14.2675221,14.0312154 L14.2675335,14.0312226 Z" id="路径" fill="#108EE9"></path>
            </g>
        </g>
    </g>
</svg>