<?xml version="1.0" encoding="UTF-8"?>
<svg width="21px" height="22px" viewBox="0 0 21 22" version="1.1" xmlns="http://www.w3.org/2000/svg" xmlns:xlink="http://www.w3.org/1999/xlink">
    <!-- Generator: Sketch 52.5 (67469) - http://www.bohemiancoding.com/sketch -->
    <title>我的-未选中</title>
    <desc>Created with Sketch.</desc>
    <g id="页面-1" stroke="none" stroke-width="1" fill="none" fill-rule="evenodd">
        <g id="首页" transform="translate(-327.000000, -1281.000000)">
            <g id="我的-未选中" transform="translate(327.000000, 1281.000000)">
                <path d="M20.6181818,11.4782609 C20.6181818,17.077948 16.0881175,21.6173913 10.5,21.6173913 C4.91188249,21.6173913 0.381818182,17.077948 0.381818182,11.4782609 C0.381818182,5.87857375 4.91188249,1.33913043 10.5,1.33913043 C11.6863966,1.33913043 12.6540049,1.44451094 13.859288,1.66042028 C15.8442442,2.01599702 15.9381122,2.02762674 16.5297209,1.91588853 C17.1901427,1.79115347 17.8457396,1.39263364 18.6859298,0.550703934 C18.9095937,0.326576949 19.2722245,0.326576949 19.4958884,0.550703934 C20.6064316,1.66354634 20.6584967,4.09304576 19.7198279,5.80069167 C20.4895771,8.01190471 20.6181818,9.02714735 20.6181818,11.4782609 Z M16.7418823,3.04385382 C15.9446449,3.19442949 15.8437173,3.18192513 13.6577155,2.79033393 C12.5136388,2.58538884 11.6098291,2.48695652 10.5,2.48695652 C5.54449956,2.48695652 1.52727273,6.5125006 1.52727273,11.4782609 C1.52727273,16.4440211 5.54449956,20.4695652 10.5,20.4695652 C15.4555004,20.4695652 19.4727273,16.4440211 19.4727273,11.4782609 C19.4727273,9.05661174 19.3517838,8.18518347 18.5513389,5.93157102 C18.4921565,5.76494613 18.5129468,5.58028439 18.6076891,5.43106104 C19.2926662,4.35219172 19.4069608,2.76426895 18.9958197,1.83328542 C18.2110487,2.52240941 17.4985338,2.9009437 16.7418823,3.04385382 Z" id="椭圆形-copy-3" fill="#333333" fill-rule="nonzero"></path>
                <path d="M14.3968463,11.784954 C14.6117417,11.5696136 14.6117417,11.2465835 14.3968463,11.0312657 L13.6447152,10.2775775 L14.5043135,9.5238892 C14.7191864,9.30854881 14.7191864,8.98554132 14.5043135,8.77020094 C14.289418,8.55486056 13.9670553,8.55486056 13.7521619,8.77020094 L12.5702625,9.84689874 C12.355367,10.0622391 12.355367,10.3852466 12.5702625,10.600587 L13.6447152,11.784954 C13.7521619,11.8926026 13.9670574,11.8926026 14.0745246,11.8926026 C14.1819719,11.8926026 14.2894201,11.8926026 14.3968463,11.784954 Z" id="路径-copy" fill="#333333"></path>
                <path d="M5.99589103,11.784954 C5.78099557,11.5696136 5.78099557,11.2465835 5.99589103,11.0312657 L6.74802208,10.2775775 L5.88844433,9.5238892 C5.67354886,9.30854881 5.67354886,8.98554132 5.88844433,8.77020094 C6.10333979,8.55486056 6.42567991,8.55486056 6.64057538,8.77020094 L7.82249531,9.84689874 C8.03739077,10.0622391 8.03739077,10.3852466 7.82249531,10.600587 L6.74802208,11.784954 C6.64057538,11.8926026 6.42567991,11.8926026 6.3182332,11.8926026 C6.21078588,11.8926026 6.10333774,11.8926026 5.99589103,11.784954 Z" id="路径-copy-2" fill="#333333"></path>
                <path d="M7.77615358,15.3275569 C7.58976699,15.10343 7.58976699,14.7400483 7.77615358,14.5159213 C7.96254018,14.2917943 8.26473255,14.2917943 8.45111915,14.5159213 C10.1738235,16.5874465 11.780722,16.5874465 13.5034263,14.5159213 C13.6898129,14.2917943 13.9920053,14.2917943 14.1783919,14.5159213 C14.3647785,14.7400483 14.3647785,15.10343 14.1783919,15.3275569 C12.0829144,17.8473361 9.87163108,17.8473361 7.77615358,15.3275569 Z" id="路径-2-copy" fill="#108EE9" fill-rule="nonzero"></path>
            </g>
        </g>
    </g>
</svg>