<?xml version="1.0" encoding="UTF-8"?>
<svg width="21px" height="22px" viewBox="0 0 21 22" version="1.1" xmlns="http://www.w3.org/2000/svg" xmlns:xlink="http://www.w3.org/1999/xlink">
    <!-- Generator: Sketch 52.5 (67469) - http://www.bohemiancoding.com/sketch -->
    <title>我的-选中</title>
    <desc>Created with Sketch.</desc>
    <g id="页面-1" stroke="none" stroke-width="1" fill="none" fill-rule="evenodd">
        <g id="首页" transform="translate(-328.000000, -1240.000000)" fill="#108EE9">
            <g id="我的-选中" transform="translate(328.000000, 1240.000000)">
                <path d="M10.5,22 C4.70101013,22 -1.10134124e-13,17.3096498 -1.10134124e-13,11.5238095 C-1.10134124e-13,5.73796929 4.70101013,1.04761905 10.5,1.04761905 C15.672218,1.04761905 16.8,3.14285714 19.95,-5.5067062e-14 C21,1.04761905 21,3.59145795 19.95,5.23809524 C21,8.18151984 21,9.42857143 21,11.5238095 C21,17.3096498 16.2989899,22 10.5,22 Z M14.4319771,11.9776124 C14.5501691,11.9776124 14.6683621,11.9776124 14.7865309,11.8597115 C15.0229159,11.6238625 15.0229159,11.2700676 14.7865309,11.0342434 L13.9591867,10.2087753 L14.9047448,9.38330722 C15.141105,9.14745823 15.141105,8.79368812 14.9047448,8.55783912 C14.6683598,8.32199013 14.3137609,8.32199013 14.0773781,8.55783912 L12.7772888,9.73707958 C12.5409037,9.97292857 12.5409037,10.3266987 12.7772888,10.5625477 L13.9591867,11.8597115 C14.0773788,11.8596884 14.3137631,11.9776124 14.4319771,11.9776124 Z M5.90005653,11.9776124 C6.0182479,11.9776124 6.25463224,11.8597115 6.37282429,11.8597115 L7.55474484,10.5625477 C7.79112985,10.3266987 7.79112985,9.97292857 7.55474484,9.73707958 L6.25463291,8.55783912 C6.0182479,8.32199013 5.66367377,8.32199013 5.42728876,8.55783912 C5.19090375,8.79368812 5.19090375,9.14745823 5.42728876,9.38330722 L6.37282429,10.2087753 L5.54548014,11.0342434 C5.30909512,11.2700676 5.30909512,11.6238625 5.54548014,11.8597115 C5.66367151,11.9776124 5.78186447,11.9776124 5.90005653,11.9776124 Z M6.97876894,16.084675 C9.28379419,18.3844734 11.7162058,18.3844734 14.0212311,16.084675 C14.2262563,15.8801146 14.2262563,15.5484568 14.0212311,15.3438964 C13.8162058,15.1393361 13.4837942,15.1393361 13.2787689,15.3438964 C11.3837942,17.2345742 9.61620581,17.2345742 7.72123106,15.3438964 C7.51620581,15.1393361 7.18379419,15.1393361 6.97876894,15.3438964 C6.77374369,15.5484568 6.77374369,15.8801146 6.97876894,16.084675 Z" id="Combined-Shape"></path>
            </g>
        </g>
    </g>
</svg>