<?xml version="1.0" encoding="UTF-8"?>
<svg width="21px" height="21px" viewBox="0 0 21 21" version="1.1" xmlns="http://www.w3.org/2000/svg" xmlns:xlink="http://www.w3.org/1999/xlink">
    <!-- Generator: Sketch 52.5 (67469) - http://www.bohemiancoding.com/sketch -->
    <title>OTP-未选中</title>
    <desc>Created with Sketch.</desc>
    <g id="页面-1" stroke="none" stroke-width="1" fill="none" fill-rule="evenodd">
        <g id="首页" transform="translate(-103.000000, -1282.000000)" fill-rule="nonzero">
            <g id="OTP-未选中" transform="translate(103.000000, 1282.000000)">
                <g id="c2c">
                    <g id="分组">
                        <path d="M19.7374721,3.37301034 C19.3947055,3.37301034 19.1190032,3.6463617 19.1190032,3.98491692 L19.1190032,5.07330559 C17.3157564,2.04387125 13.9899359,0.0125439211 10.1822475,0.0125439211 C5.23449211,0.0125439211 1.09893739,3.44824372 0.0632023522,8.04005046 C0.0284290148,8.11779262 0.00855856477,8.20055035 0.00855856477,8.29083241 C0.00855856477,8.62938763 0.286745264,8.90273899 0.627027493,8.90273899 C0.9697941,8.90273899 1.24549642,8.62938763 1.24549642,8.29083241 C2.16450747,4.23820725 5.81571785,1.21128532 10.1822521,1.21128532 C14.5512747,1.21128532 18.2024751,4.23820725 19.1190078,8.29083241 C19.1190078,8.62938763 19.3971945,8.90273899 19.7374767,8.90273899 C20.0802433,8.90273899 20.3559456,8.62938763 20.3559456,8.29083241 L20.3559456,3.98491692 C20.3559456,3.6463617 20.0802433,3.37301034 19.7374767,3.37301034 L19.7374721,3.37301034 Z M19.7374721,11.6638367 C19.3947055,11.6638367 19.1190032,11.9371881 19.1190032,12.2757433 C18.2024765,16.3283685 14.5512701,19.3578028 10.1822475,19.3578028 C5.81571328,19.3578028 2.16449294,16.3283685 1.24549184,12.2782557 C1.24549184,11.9397005 0.967305143,11.6663491 0.627022914,11.6663491 C0.284256307,11.6663491 0.00855398619,11.9397005 0.00855398619,12.2782557 L0.00855398619,16.5841712 C0.00855398619,16.9227264 0.286740685,17.1960778 0.627022914,17.1960778 C0.969789522,17.1960778 1.24549184,16.9227264 1.24549184,16.5841712 L1.24549184,15.4957825 C3.051223,18.5227045 6.37704747,20.5565442 10.1822475,20.5565442 C15.1300029,20.5565442 19.2655576,17.1208444 20.3012927,12.5290377 C20.336066,12.4512955 20.3559365,12.3685378 20.3559365,12.2782557 C20.3559365,11.9371941 20.0802341,11.6638428 19.7374675,11.6638428 L19.7374721,11.6638367 Z" id="形状" fill="#333333"></path>
                        <path d="M9.95109653,7.81815692 C9.54436067,7.94220898 9.19349743,8.12555829 8.89653896,8.36960173 C8.59878589,8.61429819 8.36382875,8.91722356 8.18945792,9.28170637 C8.01643892,9.64336263 7.93044216,10.0683388 7.93044216,10.5594857 C7.93044216,11.0473432 8.01079238,11.4665545 8.1715854,11.8186603 C8.33265614,12.1713728 8.55907321,12.4622484 8.8500896,12.690758 C9.14140147,12.9194997 9.49425994,13.0896051 9.90779518,13.2005908 C10.3238791,13.3122592 10.7902623,13.368351 11.3047473,13.368351 C11.4439207,13.368351 11.593462,13.3618558 11.7505958,13.3489333 C11.9078674,13.3359993 12.066445,13.3186817 12.2275889,13.2969612 C12.4013527,13.2711848 12.5539968,13.2451277 12.6957681,13.2165157 C12.7037375,13.2148227 12.7037375,13.2148227 12.7121714,13.2126944 C12.742488,13.2047601 12.7730584,13.1929847 12.8277631,13.1691721 C13.0192273,13.0858288 13.0869553,13.0689524 13.1923482,13.1306384 C13.4257045,13.2688417 13.4098453,13.7480969 13.2100872,13.9410318 C13.0378712,14.1061978 12.7727516,14.1786842 12.2692509,14.2488441 C11.920507,14.2947632 11.5730599,14.3181818 11.2230625,14.3181818 C10.4950132,14.3181818 9.84829245,14.2329217 9.28320087,14.0619294 C8.7145428,13.8898586 8.23870108,13.6449384 7.85209144,13.3239522 C7.46635511,13.0014359 7.17429026,12.609361 6.9774866,12.1495252 C6.78060438,11.6895068 6.68181818,11.1686501 6.68181818,10.5903291 C6.68181818,10.0235712 6.78565718,9.50040896 6.99340531,9.01766055 C7.19995481,8.53994047 7.50143529,8.12622967 7.89523846,7.77880274 C8.29013395,7.43279809 8.76584702,7.1640654 9.32637501,6.97029336 C9.88449536,6.77735183 10.5109089,6.68181818 11.2072531,6.68181818 C11.3897928,6.68181818 11.5720078,6.68856435 11.7512772,6.70198708 C11.9302573,6.71538824 12.1013683,6.7332716 12.2662173,6.75587813 C12.4484068,6.78334748 12.5941947,6.8101964 12.7243462,6.84158647 C12.9332547,6.89197185 13.0402132,6.93463027 13.1076273,7.0217435 C13.2907884,7.25464706 13.3403376,7.68215056 13.1020189,7.80436194 C12.929553,7.89185361 12.7948652,7.87325372 12.4459688,7.76845352 C12.3314615,7.73405824 12.2706078,7.71772188 12.2041084,7.70541293 C12.1902286,7.7029049 12.1902286,7.7029049 12.1770181,7.70075958 C11.8770654,7.65496272 11.5722904,7.63164903 11.2678577,7.63164903 C10.7973672,7.6316515 10.3586277,7.69386283 9.95109653,7.81815692 Z" id="路径" fill="#108EE9"></path>
                    </g>
                </g>
            </g>
        </g>
    </g>
</svg>