<?xml version="1.0" encoding="UTF-8"?>
<svg width="21px" height="21px" viewBox="0 0 21 21" version="1.1" xmlns="http://www.w3.org/2000/svg" xmlns:xlink="http://www.w3.org/1999/xlink">
    <!-- Generator: Sketch 52.5 (67469) - http://www.bohemiancoding.com/sketch -->
    <title>OTP 选中</title>
    <desc>Created with Sketch.</desc>
    <g id="页面-1" stroke="none" stroke-width="1" fill="none" fill-rule="evenodd">
        <g id="首页" transform="translate(-103.000000, -1241.000000)" fill="#108EE9" fill-rule="nonzero">
            <g id="OTP-选中" transform="translate(103.000000, 1241.000000)">
                <path d="M2.29778252,17.0560478 C1.96042925,16.6505463 1.65362952,16.2196317 1.38082965,15.7667174 L1.38082965,16.866693 C1.38082965,17.2088525 1.09949984,17.485114 0.749736857,17.485114 C0.402508967,17.485114 0.118644068,17.2088525 0.118644068,16.866693 L0.118644068,12.5149367 C0.118644068,12.4420035 0.131426393,12.3720643 0.15492918,12.3071566 C0.0530842055,11.7200518 0,11.1162251 0,10.5 C0,9.88359483 0.0531152261,9.27959538 0.155018451,8.69232889 C0.13147819,8.62756614 0.11864874,8.55780386 0.11864874,8.48506328 C0.11864874,8.39382007 0.138924775,8.31018131 0.174407887,8.23161151 C0.535206667,6.64736148 1.26463816,5.19928075 2.26983093,3.97902924 C4.19321296,1.55477798 7.16503755,0 10.5,0 C13.7942736,0 16.7342164,1.51707073 18.6593024,3.89068624 C19.0137105,4.31159035 19.3349692,4.76040491 19.6191657,5.23328264 L19.6191657,4.13330699 C19.6191657,3.7911475 19.9004955,3.51488604 20.2502585,3.51488604 C20.6000261,3.51488604 20.8813559,3.7911475 20.8813559,4.13330699 L20.8813559,8.48506328 C20.8813559,8.55799654 20.8685736,8.6279357 20.8450708,8.69284343 C20.9469158,9.27994818 21,9.88377485 21,10.5 C21,11.1159246 20.9469676,11.7194628 20.8452198,12.3062975 C20.8686217,12.3714159 20.8813466,12.4416287 20.8813466,12.5149367 C20.8813466,12.6061799 20.8610706,12.6898187 20.8255874,12.7683885 C20.4648038,14.3525719 19.7354185,15.8005975 18.7302911,17.0208169 C16.8069128,19.4451562 13.835033,21 10.5,21 C7.1811503,21 4.22193795,19.4602094 2.29778252,17.0560478 Z M10.4728289,7.47129837 C10.861365,7.32890517 11.2796548,7.25763494 11.7282156,7.25763211 C12.0184587,7.25763211 12.3090281,7.28434062 12.5949999,7.3368062 C12.6075947,7.33926391 12.6075947,7.33926391 12.6208276,7.34213715 C12.6842274,7.35623846 12.7422447,7.37495365 12.8514148,7.4143574 C13.1840491,7.53441809 13.3124591,7.55572641 13.4768863,7.45549463 C13.7040969,7.31548742 13.6568572,6.82573295 13.4822333,6.55891511 C13.4179614,6.45911688 13.3159882,6.41024675 13.116817,6.3525245 C12.9927318,6.31656356 12.8537392,6.28580503 12.6800416,6.25433572 C12.5228762,6.22843734 12.3597407,6.20794989 12.1891029,6.19259732 C12.0181893,6.17722003 11.8444673,6.16949153 11.6704359,6.16949153 C11.0065483,6.16949153 10.4093321,6.27893631 9.87722579,6.49997305 C9.34282411,6.72196123 8.8892841,7.02982547 8.51279476,7.42621362 C8.13734682,7.82423117 7.8499184,8.29818452 7.6529962,8.84546787 C7.45493125,9.39851174 7.3559322,9.99785429 7.3559322,10.6471407 C7.3559322,11.309674 7.45011396,11.9063753 7.63781947,12.4333793 C7.82545007,12.9601742 8.10390173,13.4093411 8.47165883,13.7788207 C8.84024853,14.1465474 9.29391118,14.4271316 9.83606401,14.6242585 C10.3748166,14.8201499 10.9913935,14.9178252 11.6855084,14.9178252 C12.0191924,14.9178252 12.3504448,14.8909964 12.6829338,14.8383908 C13.1629662,14.7580146 13.4157285,14.6749731 13.5799175,14.4857564 C13.7703648,14.2647273 13.7854849,13.7156853 13.5630053,13.5573575 C13.4625248,13.486689 13.3979536,13.5060229 13.2154136,13.6015022 C13.1632586,13.6287824 13.1341132,13.6422724 13.1052096,13.6513621 C13.0971688,13.6538003 13.0971688,13.6538003 13.0895709,13.6557398 C12.9544076,13.6885182 12.8088782,13.7183696 12.6432136,13.7478995 C12.4895806,13.7727827 12.3383944,13.792622 12.1884533,13.8074394 C12.0386435,13.8222436 11.8960723,13.8296846 11.7633858,13.8296846 C11.2728811,13.8296846 10.8282361,13.765425 10.4315459,13.637496 C10.0372856,13.5103491 9.7008739,13.3154737 9.42314013,13.0534239 C9.14568806,12.7916398 8.92982432,12.4584084 8.77626112,12.0543355 C8.62296269,11.6509578 8.5463576,11.1707029 8.5463576,10.611806 C8.5463576,10.0491407 8.62834604,9.56228162 8.7933006,9.14796274 C8.95954397,8.73040572 9.18354972,8.38336984 9.46742447,8.10304188 C9.75054166,7.82346203 10.0850511,7.61341428 10.4728289,7.47129837 Z" id="Combined-Shape"></path>
            </g>
        </g>
    </g>
</svg>