<?xml version="1.0" encoding="UTF-8"?>
<svg width="22px" height="22px" viewBox="0 0 22 22" version="1.1" xmlns="http://www.w3.org/2000/svg" xmlns:xlink="http://www.w3.org/1999/xlink">
    <!-- Generator: Sketch 52.5 (67469) - http://www.bohemiancoding.com/sketch -->
    <title>仓位-未选中</title>
    <desc>Created with Sketch.</desc>
    <g id="页面-1" stroke="none" stroke-width="1" fill="none" fill-rule="evenodd">
        <g id="首页" transform="translate(-253.000000, -1281.000000)" fill-rule="nonzero">
            <g id="仓位-未选中" transform="translate(253.000000, 1281.000000)">
                <path d="M13.0086957,8.99130435 L20.4493841,8.99130435 C20.1684907,5.01123229 16.9887677,1.83150929 13.0086957,1.55061589 L13.0086957,8.99130435 Z M12.4347826,0.382608696 C17.5061974,0.382608696 21.6173913,4.49380265 21.6173913,9.56521739 C21.6173913,9.88218081 21.3604417,10.1391304 21.0434783,10.1391304 L12.4347826,10.1391304 C12.1178192,10.1391304 11.8608696,9.88218081 11.8608696,9.56521739 L11.8608696,0.956521739 C11.8608696,0.639558317 12.1178192,0.382608696 12.4347826,0.382608696 Z" id="合并形状" fill="#108EE9"></path>
                <path d="M1.53043478,11.4782609 C1.53043478,16.4440211 5.55597886,20.4695652 10.5217391,20.4695652 C15.2947178,20.4695652 19.1990657,16.7505147 19.4950226,12.0521739 L10.5217391,12.0521739 C10.2047757,12.0521739 9.94782609,11.7952243 9.94782609,11.4782609 L9.94782609,2.50497742 C5.2494853,2.80093428 1.53043478,6.70528218 1.53043478,11.4782609 Z M11.0956522,10.9043478 L20.0869565,10.9043478 C20.4039199,10.9043478 20.6608696,11.1612974 20.6608696,11.4782609 C20.6608696,17.077948 16.1214262,21.6173913 10.5217391,21.6173913 C4.92205202,21.6173913 0.382608696,17.077948 0.382608696,11.4782609 C0.382608696,5.87857375 4.92205202,1.33913043 10.5217391,1.33913043 C10.8387026,1.33913043 11.0956522,1.59608006 11.0956522,1.91304348 L11.0956522,10.9043478 Z" id="合并形状" fill="#333333"></path>
            </g>
        </g>
    </g>
</svg>