<?xml version="1.0" encoding="UTF-8"?>
<svg width="21px" height="19px" viewBox="0 0 21 19" version="1.1" xmlns="http://www.w3.org/2000/svg" xmlns:xlink="http://www.w3.org/1999/xlink">
    <!-- Generator: Sketch 52.5 (67469) - http://www.bohemiancoding.com/sketch -->
    <title>差价-未选中</title>
    <desc>Created with Sketch.</desc>
    <g id="页面-1" stroke="none" stroke-width="1" fill="none" fill-rule="evenodd">
        <g id="首页" transform="translate(-178.000000, -1283.000000)" fill-rule="nonzero">
            <g id="差价-未选中" transform="translate(178.000000, 1283.000000)">
                <path d="M20.349926,0 L0.582422553,0 C0.272754224,0 0,0.269414376 0,0.577608094 L0,14.8892263 C0,15.19742 0.27070344,15.4668344 0.580371769,15.4668344 L4.96084562,15.4668344 C5.15361928,15.4668344 5.30947883,15.3892757 5.4263735,15.2361994 L9.03165113,10.4520532 L10.5041138,11.6868691 C10.7358523,11.8787248 11.0844856,11.8419864 11.27931,11.6480897 L14.5359544,7.75178636 C14.8066579,7.90690373 15.1552911,8.02120074 15.5039243,8.02120074 C16.5108591,8.02120074 17.363985,7.17213725 17.363985,6.16999741 C17.363985,5.12907823 16.5498239,4.31879409 15.5039243,4.31879409 C14.4969895,4.31879409 13.6438635,5.16785758 13.6438635,6.16999741 C13.6438635,6.40063245 13.6828284,6.67208784 13.7997231,6.86394353 L10.8137821,10.4540942 L9.30235457,9.18049896 C9.18545991,9.06416094 9.03165113,9.0253816 8.87579158,9.06416094 C8.71993202,9.06416094 8.56612325,9.14171962 8.48819347,9.29479597 L4.65117729,14.3116182 L1.16279432,14.3116182 L1.16279432,1.15725721 L19.7675035,1.15725721 L19.7675035,14.3116182 L9.88477713,14.3116182 C9.5751088,14.3116182 9.30440536,14.5810326 9.30440536,14.8912673 L9.30440536,17.7466515 L1.62832221,17.7466515 C1.31865388,17.7466515 1.04589965,18.0160659 1.04589965,18.3263006 C1.04589965,18.6344943 1.31660309,18.9039087 1.62832221,18.9039087 L19.070237,18.9039087 C19.3799054,18.9039087 19.6506088,18.6344943 19.6506088,18.3263006 C19.6506088,18.0181069 19.3799054,17.7466515 19.070237,17.7466515 L10.4651489,17.7466515 L10.4651489,15.4688754 L20.3868401,15.4688754 C20.6965085,15.4688754 20.9692627,15.199461 20.9692627,14.8912673 L20.9692627,0.577608094 C20.9302978,0.269414376 20.6595944,1.45023051e-15 20.349926,1.45023051e-15 Z M15.5039243,5.47809231 C15.8915224,5.47809231 16.2011907,5.78628603 16.2011907,6.17203843 C16.2011907,6.55779083 15.8915224,6.86598455 15.5039243,6.86598455 C15.1163262,6.86598455 14.8066579,6.55779083 14.8066579,6.17203843 C14.8066579,5.78628603 15.1163262,5.47809231 15.5039243,5.47809231 Z" id="形状" fill="#333333"></path>
                <path d="M4.96084562,15.4668344 C5.15361928,15.4668344 5.30947883,15.3892757 5.4263735,15.2361994 L9.03165113,10.4520532 L10.5041138,11.6868691 C10.7358523,11.8787248 11.0844856,11.8419864 11.27931,11.6480897 L14.5359544,7.75178636 C14.8066579,7.90690373 15.1552911,8.02120074 15.5039243,8.02120074 C16.5108591,8.02120074 17.363985,7.17213725 17.363985,6.16999741 C17.363985,5.12907823 16.5498239,4.31879409 15.5039243,4.31879409 C14.4969895,4.31879409 13.6438635,5.16785758 13.6438635,6.16999741 C13.6438635,6.40063245 13.6828284,6.67208784 13.7997231,6.86394353 L10.8137821,10.4540942 L9.30235457,9.18049896 C9.18545991,9.06416094 9.03165113,9.0253816 8.87579158,9.06416094 C8.71993202,9.06416094 8.56612325,9.14171962 8.48819347,9.29479597 L4.65117729,14.3116182 C4.65117729,14.9038727 4.65117729,15.2889448 4.65117729,15.4668344 C4.73221061,15.4668344 4.83543339,15.4668344 4.96084562,15.4668344 Z M15.5039243,5.47809231 C15.8915224,5.47809231 16.2011907,5.78628603 16.2011907,6.17203843 C16.2011907,6.55779083 15.8915224,6.86598455 15.5039243,6.86598455 C15.1163262,6.86598455 14.8066579,6.55779083 14.8066579,6.17203843 C14.8066579,5.78628603 15.1163262,5.47809231 15.5039243,5.47809231 Z" id="形状" fill="#108EE9"></path>
            </g>
        </g>
    </g>
</svg>