<?xml version="1.0" encoding="UTF-8"?>
<svg width="21px" height="19px" viewBox="0 0 21 19" version="1.1" xmlns="http://www.w3.org/2000/svg" xmlns:xlink="http://www.w3.org/1999/xlink">
    <!-- Generator: Sketch 52.5 (67469) - http://www.bohemiancoding.com/sketch -->
    <title>差价-选中</title>
    <desc>Created with Sketch.</desc>
    <g id="页面-1" stroke="none" stroke-width="1" fill="none" fill-rule="evenodd">
        <g id="首页" transform="translate(-175.000000, -1242.000000)" fill="#108EE9">
            <g id="差价-选中" transform="translate(175.000000, 1242.000000)">
                <path d="M5.32749968,15.4853684 L9.07087408,10.5051825 L10.5191626,11.7462751 C10.7470966,11.939106 11.0900061,11.902181 11.281632,11.7072986 L14.4848105,7.79118981 C14.7510697,7.94709566 15.0939792,8.06197366 15.4368888,8.06197366 C16.4272922,8.06197366 17.266412,7.20859426 17.266412,6.2013604 C17.266412,5.15515008 16.4656174,4.34074714 15.4368888,4.34074714 C14.4464853,4.34074714 13.6073655,5.19412654 13.6073655,6.2013604 C13.6073655,6.43316778 13.6456907,6.70600302 13.7606663,6.89883395 L10.8237469,10.5072339 L9.33713325,9.22716476 C9.2221577,9.11023537 9.07087408,9.07125891 8.91757335,9.11023537 C8.76427262,9.11023537 8.612989,9.1881883 8.53633863,9.34204276 L3.9171994,15.5454545 L0.758343521,15.5454545 C0.465168387,15.5454545 0.207501018,15.294577 0.188608805,14.9995434 C0.11582892,14.8666703 0.0744478423,14.7141498 0.0744478423,14.5519643 C0.0744478423,14.5495475 0.0744572322,14.5471308 0.0744760119,14.5447141 L0.180305911,0.925785504 C0.180593398,0.888789644 0.183031142,0.852310424 0.1875,0.816466066 L0.1875,0.580544159 C0.1875,0.270783848 0.455776284,2.27373675e-13 0.760360636,2.27373675e-13 L20.2033313,2.27373675e-13 C20.5079156,2.28831278e-13 20.7741748,0.270783848 20.8125,0.580544159 L20.8125,0.800677977 C20.8186398,0.843913918 20.8218158,0.888103915 20.8218158,0.933035714 C20.8218158,0.935452478 20.8218065,0.937869233 20.8217877,0.940285924 L20.8125,2.13548917 L20.8125,14.9669618 C20.8125,15.2767221 20.5442237,15.5475059 20.2396394,15.5475059 L10.4808374,15.5475059 L10.4808374,17.8368603 L18.9446516,17.8368603 C19.2492359,17.8368603 19.5154951,18.1096955 19.5154951,18.4194558 C19.5154951,18.7292162 19.2492359,19 18.9446516,19 L1.78908924,19 C1.48248778,19 1.21622861,18.7292162 1.21622861,18.4194558 C1.21622861,18.1076441 1.48450489,17.8368603 1.78908924,17.8368603 L9.33915037,17.8368603 L9.33915037,15.485 L5.32821106,15.485 Z M15.46875,5.51 C15.8335478,5.51 16.125,5.80533824 16.125,6.175 C16.125,6.54466176 15.8335478,6.84 15.46875,6.84 C15.1039522,6.84 14.8125,6.54466176 14.8125,6.175 C14.8125,5.80533824 15.1039522,5.51 15.46875,5.51 Z" id="Combined-Shape"></path>
            </g>
        </g>
    </g>
</svg>